<svg width="512" height="512" viewBox="0 0 512 512" fill="none" xmlns="http://www.w3.org/2000/svg">
<path fill-rule="evenodd" clip-rule="evenodd" d="M512 351.837C512 357.959 512 364.07 511.955 370.181C511.922 375.335 511.866 380.488 511.733 385.631C511.591 396.898 510.601 408.139 508.772 419.257C506.869 430.388 503.318 441.163 498.232 451.236C487.922 471.477 471.467 487.932 451.228 498.242C441.159 503.322 430.389 506.871 419.272 508.772C408.142 510.609 396.9 511.599 385.636 511.733C380.487 511.866 375.337 511.944 370.187 511.967C364.065 512 357.955 512 351.844 512H160.156C154.045 512 147.935 512 141.813 511.967C136.663 511.947 131.513 511.873 126.364 511.744C115.093 511.6 103.849 510.607 92.7277 508.772C81.6084 506.88 70.8341 503.318 60.7722 498.242C40.5348 487.934 24.0806 471.483 13.7683 451.247C8.6833 441.168 5.13067 430.386 3.22783 419.257C1.39865 408.142 0.408951 396.905 0.26713 385.642C0.133565 380.488 0.0667826 375.335 0.0445217 370.181C0 364.059 0 357.959 0 351.837V160.163C0 154.041 0 147.919 0.0445217 141.797C0.0667826 136.654 0.133565 131.501 0.26713 126.358C0.409119 115.095 1.39881 103.858 3.22783 92.7428C5.13113 81.6119 8.68174 70.8372 13.7683 60.7526C24.0781 40.5122 40.5327 24.0569 60.7722 13.7467C70.8382 8.66945 81.6045 5.12053 92.7165 3.21684C103.847 1.39136 115.089 0.400713 126.353 0.256011C131.506 0.12244 136.659 0.0556546 141.802 0.0333928C147.923 0 154.045 0 160.145 0H351.833C357.955 0 364.077 0 370.187 0.0333928C375.337 0.0525196 380.487 0.12673 385.636 0.256011C396.9 0.400713 408.142 1.39136 419.261 3.21684C430.392 5.12022 441.155 8.67099 451.228 13.7467C471.472 24.0537 487.931 40.5096 498.243 60.7526C503.324 70.8292 506.872 81.6076 508.772 92.7317C510.602 103.85 511.591 115.091 511.733 126.358C511.866 131.512 511.933 136.665 511.955 141.808C512 147.93 512 154.041 512 160.152V351.837Z" fill="black"/>
<path d="M148.422 134.178C138.062 134.178 130.891 143.772 130.891 154.165H121.328C122.125 128.181 144.039 104.197 175.117 104.197C193.445 104.197 220.938 111.792 220.938 157.763V163.759L236.875 150.567C236.875 136.176 236.875 121.786 236.875 107.794H248.031C248.031 118.588 248.031 129.78 248.031 140.973L298.234 99L361.586 185.745L303.414 235.713C365.57 262.496 338.875 331.652 381.508 368.029L409 346.843V359.235L348.039 407.604C325.727 397.211 316.563 378.423 310.586 358.036L247.234 408.004C239.266 402.008 211.773 382.42 176.711 382.42C148.023 382.42 126.906 395.612 114.953 414H103C115.75 388.416 137.266 365.631 164.758 352.439V276.887C160.375 276.887 155.992 276.887 151.609 276.887C135.273 276.887 126.508 286.081 129.297 299.673H121.328C118.141 292.477 116.547 284.083 116.547 276.088C116.547 237.712 145.234 231.716 164.758 231.716V158.562C164.758 145.77 161.57 134.178 148.422 134.178ZM220.938 340.846C226.117 341.246 231.297 341.646 236.875 342.845C236.875 282.883 236.875 223.321 236.875 163.759L220.938 177.35V340.846ZM248.031 345.244C262.773 349.641 276.719 356.836 288.672 366.43L308.594 350.84C300.227 317.261 297.836 281.684 261.18 272.49L248.031 283.683C248.031 304.07 248.031 324.857 248.031 345.244ZM248.031 153.765C248.031 192.141 248.031 230.916 248.031 269.692L310.984 214.926L260.383 142.972L248.031 153.765Z" fill="white"/>
</svg>
